<?xml version="1.0" encoding="utf-8"?>
<!-- Generator: Adobe Illustrator 16.0.0, SVG Export Plug-In . SVG Version: 6.00 Build 0)  -->
<!DOCTYPE svg PUBLIC "-//W3C//DTD SVG 1.1//EN" "http://www.w3.org/Graphics/SVG/1.1/DTD/svg11.dtd">
<svg version="1.1" id="Layer_1" xmlns="http://www.w3.org/2000/svg" xmlns:xlink="http://www.w3.org/1999/xlink" x="0px" y="0px"
	 width="26.545px" height="26.545px" viewBox="0 0 26.545 26.545" enable-background="new 0 0 26.545 26.545" xml:space="preserve">
<g>
	<circle fill="#FFB74D" cx="13.272" cy="13.272" r="13.272"/>
</g>
<path fill-rule="evenodd" clip-rule="evenodd" fill="#FFFFFF" d="M18.78,19.44c-0.134-0.076-0.237-0.27-0.278-0.429
	c-0.071-0.268-0.074-0.554-0.119-0.829c-0.351-2.098-1.367-3.726-3.312-4.701c-0.102-0.051-0.184-0.14-0.267-0.203
	c0.546-0.373,1.086-0.675,1.548-1.071c1.386-1.188,1.953-2.778,2.141-4.544c0.02-0.183,0.094-0.414,0.225-0.522
	c0.526-0.438,0.674-0.79,0.489-1.333c-0.187-0.548-0.644-0.555-1.101-0.555c-1.793-0.002-3.586-0.001-5.379-0.001
	c-1.494,0-2.988-0.002-4.482,0.003c-0.441,0.002-0.837,0.123-0.936,0.62C7.213,6.351,7.236,6.792,7.73,7.101
	C7.894,7.204,8.02,7.472,8.04,7.678c0.185,1.769,0.755,3.354,2.145,4.54c0.462,0.394,1.003,0.695,1.577,1.084
	c-0.351,0.199-0.684,0.359-0.986,0.564c-1.755,1.195-2.51,2.94-2.736,4.981c-0.022,0.21-0.131,0.491-0.292,0.588
	c-0.525,0.318-0.542,0.771-0.426,1.268c0.116,0.499,0.524,0.587,0.96,0.588c3.324,0.002,6.648,0.002,9.974-0.001
	c0.436,0,0.841-0.09,0.96-0.589C19.332,20.203,19.311,19.742,18.78,19.44z M10.867,9.296c-0.459,0.009-0.668-0.157-0.775-0.595
	c-0.367-1.492-0.348-1.528,1.164-1.528c0.67,0,1.34,0,2.011,0c0.95,0.001,1.899,0.01,2.849-0.004
	c0.394-0.006,0.514,0.138,0.48,0.536c-0.131,1.557-0.145,1.582-1.707,1.582C13.548,9.288,12.207,9.27,10.867,9.296z M10.373,17.283
	c0.231-1.358,1.584-2.556,2.857-2.581s2.641,1.148,2.936,2.581C14.236,17.283,12.32,17.283,10.373,17.283z"/>
</svg>
